# xmcd
#
# Track frame offsets: 
#        150
#        18821
#        29381
#        47127
#        61124
#        75697
#        90783
#        109259
#        127834
#        145428
#        166590
#        183383
#        206350
#        221298
#        250406
#        262624
#        274438
#        290440
#
# Disc length: 4624 seconds
#
# Revision: 0
# Processed by: cddbd v1.5.2PL0 Copyright (c) Steve Scherf et al.
# Submitted via: ExactAudioCopy v0.99pb4
#
DISCID=ed120e12
DTITLE=Various Artist - John Armstrong Presents South African Funk Ex
DTITLE=perience
DYEAR=2010
DGENRE=Afro
TTITLE0=Teaspoon - Oh Yeh Soweto
TTITLE1=Mahlathini and Mahotella Queens - Wozani Mahipi
TTITLE2=Malombo - Sangoma
TTITLE3=Jabula - Jabula's Happiness
TTITLE4=Phuzushukela - Intombi Ibhinca Isidwaba
TTITLE5=Soul Brothers - Bayeza
TTITLE6=Chris McGregor's Brotherhood Of Breath - Andromeda
TTITLE7=Kataki - Hula Hoop Jive
TTITLE8=Nelcy Sedibe - Kikizelani
TTITLE9=Sipho "Hot Stix" Mabuse - Jive Soweto
TTITLE10=J.J. Chauke - Madyisa Mbitsi
TTITLE11=Dudu Pukwana - Baloyi
TTITLE12=Abafakasi - Malume
TTITLE13=Dick Khoza - African Jive (Moto)
TTITLE14=Mahotella Queens - Asambeni Bafana
TTITLE15=Gwigwi Mrwebi - Lily's Express
TTITLE16=Amaswazi Emvelo - Thul'ulalele
TTITLE17=Lulu and His Boys and Girls - Zandile Jive
EXTD=
EXTT0=
EXTT1=
EXTT2=
EXTT3=
EXTT4=
EXTT5=
EXTT6=
EXTT7=
EXTT8=
EXTT9=
EXTT10=
EXTT11=
EXTT12=
EXTT13=
EXTT14=
EXTT15=
EXTT16=
EXTT17=
PLAYORDER=
